<svg xmlns="http://www.w3.org/2000/svg" viewBox="0 0 400 300" width="400" height="300">
  <rect width="400" height="300" fill="#0a0a0a"/>
  <rect x="100" y="80" width="200" height="60" rx="5" fill="#1a1a1a" stroke="#333" stroke-width="1.5"/>
  <rect x="105" y="85" width="190" height="50" rx="3" fill="#111"/>
  <rect x="115" y="92" width="12" height="20" rx="2" fill="#222" stroke="#333"/><rect x="133" y="92" width="12" height="20" rx="2" fill="#222" stroke="#333"/><rect x="151" y="92" width="12" height="20" rx="2" fill="#222" stroke="#333"/><rect x="169" y="92" width="12" height="20" rx="2" fill="#222" stroke="#333"/><rect x="187" y="92" width="12" height="20" rx="2" fill="#222" stroke="#333"/><rect x="205" y="92" width="12" height="20" rx="2" fill="#222" stroke="#333"/><rect x="223" y="92" width="12" height="20" rx="2" fill="#222" stroke="#333"/><rect x="241" y="92" width="12" height="20" rx="2" fill="#222" stroke="#333"/><rect x="259" y="92" width="12" height="20" rx="2" fill="#222" stroke="#333"/>
  <rect x="100" y="138" width="200" height="8" fill="#b8860b"/>
  <rect x="106" y="140" width="4" height="4" fill="#ffd700"/><rect x="112" y="140" width="4" height="4" fill="#ffd700"/><rect x="118" y="140" width="4" height="4" fill="#ffd700"/><rect x="124" y="140" width="4" height="4" fill="#ffd700"/><rect x="130" y="140" width="4" height="4" fill="#ffd700"/><rect x="136" y="140" width="4" height="4" fill="#ffd700"/><rect x="142" y="140" width="4" height="4" fill="#ffd700"/><rect x="148" y="140" width="4" height="4" fill="#ffd700"/><rect x="154" y="140" width="4" height="4" fill="#ffd700"/><rect x="160" y="140" width="4" height="4" fill="#ffd700"/><rect x="166" y="140" width="4" height="4" fill="#ffd700"/><rect x="172" y="140" width="4" height="4" fill="#ffd700"/><rect x="178" y="140" width="4" height="4" fill="#ffd700"/><rect x="184" y="140" width="4" height="4" fill="#ffd700"/><rect x="190" y="140" width="4" height="4" fill="#ffd700"/><rect x="196" y="140" width="4" height="4" fill="#ffd700"/><rect x="202" y="140" width="4" height="4" fill="#ffd700"/><rect x="208" y="140" width="4" height="4" fill="#ffd700"/><rect x="214" y="140" width="4" height="4" fill="#ffd700"/><rect x="220" y="140" width="4" height="4" fill="#ffd700"/><rect x="226" y="140" width="4" height="4" fill="#ffd700"/><rect x="232" y="140" width="4" height="4" fill="#ffd700"/><rect x="238" y="140" width="4" height="4" fill="#ffd700"/><rect x="244" y="140" width="4" height="4" fill="#ffd700"/><rect x="250" y="140" width="4" height="4" fill="#ffd700"/><rect x="256" y="140" width="4" height="4" fill="#ffd700"/><rect x="262" y="140" width="4" height="4" fill="#ffd700"/><rect x="268" y="140" width="4" height="4" fill="#ffd700"/><rect x="274" y="140" width="4" height="4" fill="#ffd700"/><rect x="280" y="140" width="4" height="4" fill="#ffd700"/><rect x="286" y="140" width="4" height="4" fill="#ffd700"/><rect x="292" y="140" width="4" height="4" fill="#ffd700"/>
  <rect x="0" y="0" width="400" height="5" fill="#1a8c44"/>
  <text x="200" y="240" font-family="Arial Black" font-size="16" fill="#fff" text-anchor="middle">SSD NV2 1TB</text>
  <text x="200" y="260" font-family="Arial" font-size="11" fill="#aaa" text-anchor="middle">NVMe M.2 · 3500MB/s</text>
  <text x="200" y="280" font-family="Arial" font-size="10" fill="#1a8c44" text-anchor="middle" font-weight="bold">Kingston</text>
</svg>