<svg xmlns="http://www.w3.org/2000/svg" viewBox="0 0 400 300" width="400" height="300">
  <rect width="400" height="300" fill="#0a0a0a"/>
  <rect x="80" y="70" width="240" height="160" rx="6" fill="#1a1a1a" stroke="#333" stroke-width="2"/>
  <rect x="85" y="75" width="230" height="150" rx="4" fill="#111"/>
  <!-- Ventilador PSU -->
  <circle cx="200" cy="150" r="60" fill="#0a0a0a" stroke="#222" stroke-width="2"/>
  <circle cx="200" cy="150" r="50" fill="none" stroke="#333" stroke-width="1.5"/>
  <circle cx="200" cy="150" r="12" fill="#1a1a1a" stroke="#FFD700" stroke-width="1.5"/>
  <line x1="200" y1="150" x2="243" y2="150" stroke="#FFD700" stroke-width="2.5" opacity="0.5"/><line x1="200" y1="150" x2="234" y2="175" stroke="#FFD700" stroke-width="2.5" opacity="0.5"/><line x1="200" y1="150" x2="213" y2="190" stroke="#FFD700" stroke-width="2.5" opacity="0.5"/><line x1="200" y1="150" x2="186" y2="190" stroke="#FFD700" stroke-width="2.5" opacity="0.5"/><line x1="200" y1="150" x2="165" y2="175" stroke="#FFD700" stroke-width="2.5" opacity="0.5"/><line x1="200" y1="150" x2="157" y2="150" stroke="#FFD700" stroke-width="2.5" opacity="0.5"/><line x1="200" y1="150" x2="165" y2="124" stroke="#FFD700" stroke-width="2.5" opacity="0.5"/><line x1="200" y1="150" x2="186" y2="109" stroke="#FFD700" stroke-width="2.5" opacity="0.5"/><line x1="200" y1="150" x2="213" y2="109" stroke="#FFD700" stroke-width="2.5" opacity="0.5"/><line x1="200" y1="150" x2="234" y2="124" stroke="#FFD700" stroke-width="2.5" opacity="0.5"/>
  <!-- Cables/conectores -->
  <rect x="310" y="90" width="20" height="12" rx="2" fill="#333" stroke="#FFD700" stroke-width="0.5"/>
  <rect x="310" y="110" width="20" height="12" rx="2" fill="#333" stroke="#FFD700" stroke-width="0.5"/>
  <rect x="310" y="130" width="20" height="12" rx="2" fill="#333" stroke="#FFD700" stroke-width="0.5"/>
  <!-- Badge 80+ -->
  <rect x="90" y="80" width="55" height="22" rx="3" fill="#FFD700"/>
  <text x="117" y="95" font-family="Arial Black" font-size="10" fill="#000" text-anchor="middle" font-weight="900">80+ GOLD</text>
  <!-- Texto -->
  <rect x="0" y="0" width="400" height="5" fill="#FFD700"/>
  <text x="200" y="252" font-family="Arial Black" font-size="16" fill="#fff" text-anchor="middle">RM650x 650W</text>
  <text x="200" y="272" font-family="Arial" font-size="11" fill="#aaa" text-anchor="middle">80+ Gold · Full Modular</text>
  <text x="200" y="290" font-family="Arial" font-size="10" fill="#FFD700" text-anchor="middle" font-weight="bold">Corsair</text>
</svg>