<svg xmlns="http://www.w3.org/2000/svg" viewBox="0 0 400 300" width="400" height="300">
  <rect width="400" height="300" fill="#0a0a12"/>
  <!-- Módulo RAM -->
  <rect x="60" y="60" width="280" height="130" rx="4" fill="#1a1a2e" stroke="#333" stroke-width="1.5"/>
  <!-- PCB verde oscuro -->
  <rect x="65" y="65" width="270" height="120" rx="3" fill="#0d2b12"/>
  <!-- Chips de memoria -->
  <rect x="80" y="80" width="22" height="35" rx="2" fill="#1a1a1a" stroke="#333"/><rect x="110" y="80" width="22" height="35" rx="2" fill="#1a1a1a" stroke="#333"/><rect x="140" y="80" width="22" height="35" rx="2" fill="#1a1a1a" stroke="#333"/><rect x="170" y="80" width="22" height="35" rx="2" fill="#1a1a1a" stroke="#333"/><rect x="200" y="80" width="22" height="35" rx="2" fill="#1a1a1a" stroke="#333"/><rect x="230" y="80" width="22" height="35" rx="2" fill="#1a1a1a" stroke="#333"/><rect x="260" y="80" width="22" height="35" rx="2" fill="#1a1a1a" stroke="#333"/><rect x="290" y="80" width="22" height="35" rx="2" fill="#1a1a1a" stroke="#333"/>
  <rect x="80" y="125" width="22" height="35" rx="2" fill="#1a1a1a" stroke="#333"/><rect x="110" y="125" width="22" height="35" rx="2" fill="#1a1a1a" stroke="#333"/><rect x="140" y="125" width="22" height="35" rx="2" fill="#1a1a1a" stroke="#333"/><rect x="170" y="125" width="22" height="35" rx="2" fill="#1a1a1a" stroke="#333"/><rect x="200" y="125" width="22" height="35" rx="2" fill="#1a1a1a" stroke="#333"/><rect x="230" y="125" width="22" height="35" rx="2" fill="#1a1a1a" stroke="#333"/><rect x="260" y="125" width="22" height="35" rx="2" fill="#1a1a1a" stroke="#333"/><rect x="290" y="125" width="22" height="35" rx="2" fill="#1a1a1a" stroke="#333"/>
  <!-- Conector dorado -->
  <rect x="65" y="183" width="270" height="12" fill="#b8860b"/>
  <rect x="72" y="185" width="3" height="8" fill="#ffd700"/><rect x="77" y="185" width="3" height="8" fill="#ffd700"/><rect x="82" y="185" width="3" height="8" fill="#ffd700"/><rect x="87" y="185" width="3" height="8" fill="#ffd700"/><rect x="92" y="185" width="3" height="8" fill="#ffd700"/><rect x="97" y="185" width="3" height="8" fill="#ffd700"/><rect x="102" y="185" width="3" height="8" fill="#ffd700"/><rect x="107" y="185" width="3" height="8" fill="#ffd700"/><rect x="112" y="185" width="3" height="8" fill="#ffd700"/><rect x="117" y="185" width="3" height="8" fill="#ffd700"/><rect x="122" y="185" width="3" height="8" fill="#ffd700"/><rect x="127" y="185" width="3" height="8" fill="#ffd700"/><rect x="132" y="185" width="3" height="8" fill="#ffd700"/><rect x="137" y="185" width="3" height="8" fill="#ffd700"/><rect x="142" y="185" width="3" height="8" fill="#ffd700"/><rect x="147" y="185" width="3" height="8" fill="#ffd700"/><rect x="152" y="185" width="3" height="8" fill="#ffd700"/><rect x="157" y="185" width="3" height="8" fill="#ffd700"/><rect x="162" y="185" width="3" height="8" fill="#ffd700"/><rect x="167" y="185" width="3" height="8" fill="#ffd700"/><rect x="172" y="185" width="3" height="8" fill="#ffd700"/><rect x="177" y="185" width="3" height="8" fill="#ffd700"/><rect x="182" y="185" width="3" height="8" fill="#ffd700"/><rect x="187" y="185" width="3" height="8" fill="#ffd700"/><rect x="192" y="185" width="3" height="8" fill="#ffd700"/><rect x="197" y="185" width="3" height="8" fill="#ffd700"/><rect x="202" y="185" width="3" height="8" fill="#ffd700"/><rect x="207" y="185" width="3" height="8" fill="#ffd700"/><rect x="212" y="185" width="3" height="8" fill="#ffd700"/><rect x="217" y="185" width="3" height="8" fill="#ffd700"/><rect x="222" y="185" width="3" height="8" fill="#ffd700"/><rect x="227" y="185" width="3" height="8" fill="#ffd700"/><rect x="232" y="185" width="3" height="8" fill="#ffd700"/><rect x="237" y="185" width="3" height="8" fill="#ffd700"/><rect x="242" y="185" width="3" height="8" fill="#ffd700"/><rect x="247" y="185" width="3" height="8" fill="#ffd700"/><rect x="252" y="185" width="3" height="8" fill="#ffd700"/><rect x="257" y="185" width="3" height="8" fill="#ffd700"/><rect x="262" y="185" width="3" height="8" fill="#ffd700"/><rect x="267" y="185" width="3" height="8" fill="#ffd700"/><rect x="272" y="185" width="3" height="8" fill="#ffd700"/><rect x="277" y="185" width="3" height="8" fill="#ffd700"/><rect x="282" y="185" width="3" height="8" fill="#ffd700"/><rect x="287" y="185" width="3" height="8" fill="#ffd700"/><rect x="292" y="185" width="3" height="8" fill="#ffd700"/><rect x="297" y="185" width="3" height="8" fill="#ffd700"/><rect x="302" y="185" width="3" height="8" fill="#ffd700"/><rect x="307" y="185" width="3" height="8" fill="#ffd700"/><rect x="312" y="185" width="3" height="8" fill="#ffd700"/><rect x="317" y="185" width="3" height="8" fill="#ffd700"/><rect x="322" y="185" width="3" height="8" fill="#ffd700"/><rect x="327" y="185" width="3" height="8" fill="#ffd700"/>
  <!-- RGB strip -->
  <rect x="65" y="62" width="270" height="5" rx="2" fill="#FFD700" opacity="0.8"/>
  <!-- Etiqueta -->
  <rect x="140" y="88" width="120" height="44" rx="3" fill="#fff" opacity="0.08"/>
  <text x="200" y="112" font-family="Arial Black" font-size="11" fill="#fff" text-anchor="middle" font-weight="bold">Vengeance RGB</text>
  <!-- Texto abajo -->
  <rect x="0" y="0" width="400" height="5" fill="#FFD700"/>
  <text x="200" y="230" font-family="Arial Black" font-size="18" fill="#fff" text-anchor="middle">Vengeance RGB</text>
  <text x="200" y="252" font-family="Arial" font-size="11" fill="#aaa" text-anchor="middle">16GB · DDR4 · 3600MHz</text>
  <text x="200" y="272" font-family="Arial" font-size="10" fill="#FFD700" text-anchor="middle" font-weight="bold">Corsair</text>
</svg>